<?xml version="1.0" encoding="utf-8" ?>
<svg baseProfile="tiny" height="100%" version="1.2" width="100%" xmlns="http://www.w3.org/2000/svg" xmlns:ev="http://www.w3.org/2001/xml-events" xmlns:xlink="http://www.w3.org/1999/xlink"><defs /><polygon fill="none" points="1000.0,-1.2 950.0,-10.27 900.0,-18.67 800.0,-33.2 700.0,-44.8 600.0,-53.2 500.0,-58.27 400.0,-60.0 300.0,-58.0 200.0,-50.93 150.0,-44.93 100.0,-36.53 75.0,-31.33 50.0,-24.93 25.0,-16.8 12.5,-11.33 0.0,-0.0 12.5,11.33 25.0,16.8 50.0,24.93 75.0,31.33 100.0,36.53 150.0,44.93 200.0,50.93 300.0,58.0 400.0,60.0 500.0,58.27 600.0,53.2 700.0,44.8 800.0,33.2 900.0,18.67 950.0,10.27 1000.0,1.2 1000.0,-1.2" stroke="black" /></svg>